<svg xmlns="http://www.w3.org/2000/svg" width="36" height="36" viewBox="0 0 36 36">
    <path fill="#FFF" fill-rule="evenodd" d="M11.776 25.827A9.958 9.958 0 0 0 18 28a9.958 9.958 0 0 0 6.224-2.173 4.738 4.738 0 0 0-3.785-4.008c-1.504-.291-1.918-2.247-.662-3.122.917-.64 1.49-1.706 1.49-2.8 0-1.74-1.454-3.165-3.267-3.165s-3.268 1.426-3.268 3.165c0 1.094.574 2.16 1.49 2.8 1.257.875.843 2.831-.66 3.122a4.738 4.738 0 0 0-3.786 4.008zM10.33 24.42a6.478 6.478 0 0 1 4.9-4.301C13.887 19.18 13 17.6 13 15.898 13 13.192 15.239 11 18 11s5 2.193 5 4.897c0 1.703-.886 3.283-2.232 4.221a6.478 6.478 0 0 1 4.9 4.3A9.96 9.96 0 0 0 28 18c0-5.523-4.477-10-10-10S8 12.477 8 18a9.96 9.96 0 0 0 2.331 6.419zM18 30c-6.627 0-12-5.373-12-12S11.373 6 18 6s12 5.373 12 12-5.373 12-12 12z"/>
</svg>
